<svg height="103" viewBox="0 0 103 103" width="103" xmlns="http://www.w3.org/2000/svg" xmlns:xlink="http://www.w3.org/1999/xlink"><filter id="a" filterUnits="userSpaceOnUse" height="103" width="103" x="0" y="0"><feOffset dy="3"/><feGaussianBlur result="blur" stdDeviation="3"/><feFlood flood-opacity=".161"/><feComposite in2="blur" operator="in"/><feComposite in="SourceGraphic"/></filter><g filter="url(#a)"><rect fill="#4e56f6" height="85" rx="10" transform="translate(9 6)" width="85"/></g><path d="m47.691 11.074h-7.158v-8.217zm9.073 32.349-.121 2.611a22.632 22.632 0 0 1 -7.821 15.966 22.591 22.591 0 0 1 -7.83-15.966l-.122-2.611.184.031a8.263 8.263 0 0 0 1.009.153c.1.01.214.02.327.02.224.021.459.041.683.051.132 0 .276-.01.408-.01a5.942 5.942 0 0 0 .6-.02c.152-.01.3-.031.448-.041l.562-.062.458-.091c.184-.031.358-.061.541-.1.153-.041.306-.082.449-.122.183-.051.356-.1.53-.163a3.877 3.877 0 0 0 .449-.163c.163-.061.336-.122.5-.193s.295-.132.438-.2c.122-.051.245-.1.366-.164a11.9 11.9 0 0 0 7.759 1.111zm-3.18 4.415a.515.515 0 0 0 -.724.021l-4.986 5.3-2.074-2.089a.515.515 0 0 0 -.724-.01.506.506 0 0 0 0 .724l2.437 2.467a.538.538 0 0 0 .366.153.529.529 0 0 0 .367-.163l5.354-5.679a.514.514 0 0 0 -.02-.724zm-10.96 7.962c.051.092.092.173.132.255h-35.52v-54.055h32.278v9.584a.47.47 0 0 0 .041.2.5.5 0 0 0 .469.316h8.289v29.346c-.111.061-.224.112-.325.163l-.377.173c-.173.072-.347.133-.52.2-.112.041-.225.082-.336.111a5.525 5.525 0 0 1 -.591.173 2.8 2.8 0 0 1 -.286.082c-.224.051-.438.092-.662.132-.082.021-.163.031-.245.052-.235.03-.48.061-.714.071l-.214.031c-.245.01-.5.02-.755.01-.061 0-.112.01-.173.01-.265-.01-.541-.03-.805-.051a.55.55 0 0 0 -.133-.01c-.306-.031-.622-.082-.928-.142l-.825-.163a.509.509 0 0 0 -.428.122.472.472 0 0 0 -.173.407l.162 3.263c.021.449.052.907.1 1.356.02.153.041.305.061.469.041.3.082.591.132.877.031.184.062.367.1.54.051.276.1.541.163.8.041.194.091.377.132.571.071.255.132.5.2.754.061.194.112.377.173.571l.244.734c.072.183.143.367.214.56.093.235.184.469.286.714.072.183.153.367.235.55.1.235.214.459.326.693.092.174.174.358.266.531zm-23.724-34.725a.482.482 0 0 0 .4.2.536.536 0 0 0 .317-.1l.907-.694v8.619a.511.511 0 0 0 .51.51h13.474a.511.511 0 0 0 .51-.51v-8.616l.907.694a.512.512 0 0 0 .316.1.482.482 0 0 0 .4-.2.505.505 0 0 0 -.091-.713l-1.733-1.305-1.081-.826-5.661-4.274a.031.031 0 0 0 -.02-.01.873.873 0 0 0 -.1-.052.721.721 0 0 1 -.082-.03h-.082a.071.071 0 0 0 -.041-.011.209.209 0 0 1 -.082.011.7.7 0 0 1 -.081.03.882.882 0 0 0 -.1.052.031.031 0 0 0 -.02.01l-1.479 1.111-6.994 5.292a.505.505 0 0 0 -.092.713zm-6.383 12.663a.511.511 0 0 0 .51.51h29.484a.511.511 0 0 0 .51-.51.505.505 0 0 0 -.51-.51h-29.484a.505.505 0 0 0 -.51.51zm0 5.393a.511.511 0 0 0 .51.51h29.484a.511.511 0 0 0 .51-.51.505.505 0 0 0 -.51-.51h-29.484a.505.505 0 0 0 -.51.51zm20.951 5.383a.511.511 0 0 0 -.51-.51h-19.931a.511.511 0 0 0 -.51.51.5.5 0 0 0 .51.509h19.931a.5.5 0 0 0 .51-.509zm-5.7-19.7a1.254 1.254 0 0 0 -1.254 1.255v2.518h2.508v-2.515a1.254 1.254 0 0 0 -1.254-1.254zm-2.268 1.258a2.274 2.274 0 1 1 4.547 0v2.518h3.953v-8.88l-6.231-4.71-.769.581-5.461 4.139v8.87h3.961z" fill="#fff" transform="translate(19.764 17)"/></svg>