<svg height="103" viewBox="0 0 103 103" width="103" xmlns="http://www.w3.org/2000/svg" xmlns:xlink="http://www.w3.org/1999/xlink"><filter id="a" filterUnits="userSpaceOnUse" height="103" width="103" x="0" y="0"><feOffset dy="3"/><feGaussianBlur result="blur" stdDeviation="3"/><feFlood flood-opacity=".161"/><feComposite in2="blur" operator="in"/><feComposite in="SourceGraphic"/></filter><g filter="url(#a)"><rect fill="#4e56f6" height="85" rx="10" transform="translate(9 6)" width="85"/></g><g fill="#fff"><circle cx="51.951" cy="35.458" r="11.919"/><path d="m305.158 59.071a11.479 11.479 0 0 1 -2.117 6.616 11.34 11.34 0 0 1 -5.352 4.072 11.384 11.384 0 0 1 -8.554-21.084 11.345 11.345 0 0 1 6.875-.767 11.4 11.4 0 0 1 9.019 9.435 11.582 11.582 0 0 1 .13 1.728.54.54 0 0 0 1.08 0 12.453 12.453 0 0 0 -2.284-7.188 12.454 12.454 0 0 0 -13.577-4.8 12.452 12.452 0 0 0 -1.757 23.317 12.636 12.636 0 0 0 7.642.869 12.451 12.451 0 0 0 9.813-10.234 12.722 12.722 0 0 0 .157-1.977.538.538 0 0 0 -1.075.013z" transform="translate(-241.828 -23.612)"/><path d="m172.682 594.962h-35.59a2.593 2.593 0 0 1 -2.592-2.592v-6.194a12.474 12.474 0 0 1 12.475-12.476h15.825a12.474 12.474 0 0 1 12.475 12.475v6.194a2.593 2.593 0 0 1 -2.593 2.593z" transform="translate(-102.936 -522.234)"/><path d="m162.809 584.7h-35.335a2.845 2.845 0 0 1 -.9-.1 2.045 2.045 0 0 1 -1.253-1.167 2.442 2.442 0 0 1 -.151-.961v-5.255a18.905 18.905 0 0 1 .1-2.344 11.816 11.816 0 0 1 1.226-3.9 12.1 12.1 0 0 1 5.876-5.492 11.776 11.776 0 0 1 4.05-.951c.41-.022.826-.016 1.237-.016h14.932a12.438 12.438 0 0 1 5.806 1.323 12.1 12.1 0 0 1 5.492 5.876 11.776 11.776 0 0 1 .951 4.05c.032.637.016 1.274.016 1.912 0 1.647.016 3.294 0 4.942a2.063 2.063 0 0 1 -2.041 2.085.54.54 0 0 0 0 1.08 3.171 3.171 0 0 0 3.121-2.911c.049-.594.011-1.2.011-1.8 0-1.642.038-3.284-.005-4.925a13.024 13.024 0 0 0 -10.45-12.459 21.409 21.409 0 0 0 -4.153-.254h-11.601c-1.032 0-2.063-.027-3.094.011a13.029 13.029 0 0 0 -12.335 10.6 31.006 31.006 0 0 0 -.227 5.622v2.652a5.165 5.165 0 0 0 .027.707 3.135 3.135 0 0 0 1.069 2.009 3.3 3.3 0 0 0 2.144.751h35.478a.54.54 0 0 0 .009-1.085z" transform="translate(-93.064 -512.516)"/></g></svg>