<svg height="103" viewBox="0 0 103 103" width="103" xmlns="http://www.w3.org/2000/svg" xmlns:xlink="http://www.w3.org/1999/xlink"><filter id="a" filterUnits="userSpaceOnUse" height="103" width="103" x="0" y="0"><feOffset dy="3"/><feGaussianBlur result="blur" stdDeviation="3"/><feFlood flood-opacity=".161"/><feComposite in2="blur" operator="in"/><feComposite in="SourceGraphic"/></filter><g filter="url(#a)" transform="translate(0 .004)"><rect fill="#4e56f6" height="85" rx="10" transform="translate(9 6)" width="85"/></g><g fill="#fff"><path d="m246.1 135.3a7.2 7.2 0 1 0 -7.2-7.2 7.209 7.209 0 0 0 7.2 7.2zm0-12.539a5.34 5.34 0 1 1 -5.34 5.34 5.346 5.346 0 0 1 5.34-5.343z" transform="translate(-189.696 -88.46)"/><path d="m114.272 102.847v-34.647a4.211 4.211 0 0 0 -3.272 4.1v35.687a4.224 4.224 0 0 0 4.2 4.242h25.61a4.221 4.221 0 0 0 4.1-3.272h-24.573a6.1 6.1 0 0 1 -6.065-6.11z" transform="translate(-76.742 -41.918)"/><path d="m274.271 159.841a3.471 3.471 0 1 0 -3.471-3.471 3.471 3.471 0 0 0 3.471 3.471z" transform="translate(-217.868 -116.721)"/><path d="m69.389 146.671v-34.671a4.165 4.165 0 0 0 -3.389 4.125v35.687a4.224 4.224 0 0 0 4.2 4.242h25.61a4.221 4.221 0 0 0 4.1-3.272h-24.456a6.1 6.1 0 0 1 -6.065-6.111z" transform="translate(-37 -80.6)"/><path d="m177.086 30.619v-7.619h-17.886a4.224 4.224 0 0 0 -4.2 4.242v35.687a4.224 4.224 0 0 0 4.2 4.242h25.61a4.224 4.224 0 0 0 4.2-4.242v-27.429h-6.97a4.935 4.935 0 0 1 -4.954-4.881zm-5.086 1.951a9.059 9.059 0 0 1 5.574 16.208l2.29 5.562a1.461 1.461 0 0 1 -.28 1.566 1.44 1.44 0 0 1 -1.542.4l-1.753-.573-.76 1.566a1.482 1.482 0 0 1 -1.332.83h-.047a1.475 1.475 0 0 1 -1.32-.923l-.783-1.928-.853 2.092a1.494 1.494 0 0 1 -1.32.923h-.047a1.508 1.508 0 0 1 -1.332-.83l-.76-1.566-1.753.573a1.49 1.49 0 0 1 -1.542-.4 1.461 1.461 0 0 1 -.28-1.566l2.3-5.714a9.061 9.061 0 0 1 5.54-16.22zm10.552 28.057a.938.938 0 0 1 -.935.935h-19.232a.935.935 0 1 1 0-1.87h19.246a.928.928 0 0 1 .923.935z" transform="translate(-115.6 -2)"/><path d="m363.085 44.5h5.738l-8.823-9.2v6.182a3.06 3.06 0 0 0 3.085 3.018z" transform="translate(-296.645 -12.863)"/><path d="m302.1 253.111 2.033 5 .526-1.087a1.493 1.493 0 0 1 1.788-.76l1.274.409-1.846-4.476a8.765 8.765 0 0 1 -3.775.914z" transform="translate(-245.511 -204.417)"/><path d="m252.57 252.3-1.87 4.639 1.285-.421a1.5 1.5 0 0 1 1.788.76l.526 1.087 1.25-3.05-.949-2.315a8.719 8.719 0 0 1 -2.03-.7z" transform="translate(-200.117 -204.505)"/></g></svg>