<svg height="103" viewBox="0 0 103 103" width="103" xmlns="http://www.w3.org/2000/svg" xmlns:xlink="http://www.w3.org/1999/xlink"><filter id="a" filterUnits="userSpaceOnUse" height="103" width="103" x="0" y="0"><feOffset dy="3"/><feGaussianBlur result="blur" stdDeviation="3"/><feFlood flood-opacity=".161"/><feComposite in2="blur" operator="in"/><feComposite in="SourceGraphic"/></filter><g filter="url(#a)"><rect fill="#4e56f6" height="85" rx="10" transform="translate(9 6)" width="85"/></g><g fill="#fff"><path d="m40.283 20.442a4.391 4.391 0 0 0 -1.705-4l-.162-.08c-.081-.08-.081-.08-.162-.08l-.162-.08a.079.079 0 0 1 -.081-.08l-.244-.08c-.081-.08-.244-.08-.406-.16a15.748 15.748 0 0 0 -6.415-.16c-.487.08-5.035.08-5.116.4l.731-2.318c.406-1.279.731-2.477 1.137-3.756a11.157 11.157 0 0 0 .568-4.715 6.274 6.274 0 0 0 -2.842-4.4 5.287 5.287 0 0 0 -2.842-.8h-.244a1.55 1.55 0 0 0 -1.624 1.518c-.081 1.2-.244 2.318-.406 3.356a14.209 14.209 0 0 1 -1.543 4.635 7.366 7.366 0 0 1 -1.543 2c-.812.8-1.624 1.758-2.6 2.8l-2.111 2.4a14.461 14.461 0 0 1 -1.543 1.6l-.406.4a6.372 6.372 0 0 1 -1.218.8 5.614 5.614 0 0 1 -1.056.32c-1.787.479-2.842.959-2.923 2.078 0 .559-.081 1.119-.081 1.6v18.139h2.923c.974.16 1.949.32 3.248.559l.568.08c2.517.4 4.872.8 7.146 1.039 5.684.639 12.587 2.318 16.81-2.8 1.705-2.078 1.868-5.035 2.274-7.592.731-4.232 1.462-8.388 2.03-12.623z" transform="translate(35.495 26.054)"/><path d="m9.542 32.162h-7.552a1.788 1.788 0 0 1 -1.79-1.762v-22.213a1.788 1.788 0 0 1 1.79-1.758h7.552a1.788 1.788 0 0 1 1.787 1.758v22.213a1.737 1.737 0 0 1 -1.787 1.762z" transform="translate(26.365 37.35)"/></g></svg>